<svg xmlns="http://www.w3.org/2000/svg" fill="none" viewBox="0 0 128 128">
  <path fill-rule="evenodd"
    d="M76.18 11.2a15.28 15.28 0 0 1 5 20.8L63.16 62.18l36.8 23.21a15.29 15.29 0 0 1 4.8 20.84 14.73 14.73 0 0 1-20.49 4.89L64.4 98.59l.65 2.96a15.14 15.14 0 0 1-11.27 18.08 14.88 14.88 0 0 1-17.77-11.46L20.36 37.15a15.14 15.14 0 0 1 11.27-18.08 14.83 14.83 0 0 1 17.04 9.06l7.07-11.85a14.74 14.74 0 0 1 20.44-5.08Z"
    clip-rule="evenodd" />
  <style>
    path {
      fill: #A5A6F6;
    }

    @media (prefers-color-scheme: dark) {
      path {
        fill: #FFF;
      }
    }
  </style>
</svg>